<?xml version="1.0" encoding="UTF-8" standalone="no"?><!DOCTYPE svg PUBLIC "-//W3C//DTD SVG 1.1//EN" "http://www.w3.org/Graphics/SVG/1.1/DTD/svg11.dtd"><svg width="100%" height="100%" viewBox="0 0 48 48" version="1.1" xmlns="http://www.w3.org/2000/svg" xmlns:xlink="http://www.w3.org/1999/xlink" xml:space="preserve" xmlns:serif="http://www.serif.com/" style="fill-rule:evenodd;clip-rule:evenodd;stroke-linecap:round;stroke-linejoin:round;stroke-miterlimit:1.5;"><path d="M9,13l10.889,0l0,4.074l17.111,0l0,17.926l-28,0l0,-13.852l0,-8.148Z" style="fill:none;stroke-width:2px;"/><path d="M9,13l10.889,0l0,4.074l17.111,0l0,17.926l-28,0l0,-13.852l0,-8.148Z" style="fill:#fff;fill-opacity:0;"/><path d="M37.053,23l-22.106,0l0,12l22.106,0l0,-12Zm-22.106,12l-3.947,0l3.947,-12l0,12Zm22.106,0l0,-12l3.947,0l-3.947,12Z" style="fill:none;stroke-width:1.9px;"/><path d="M37.053,23l-22.106,0l0,12l22.106,0l0,-12Zm-22.106,12l-3.947,0l3.947,-12l0,12Zm22.106,0l0,-12l3.947,0l-3.947,12Z"/></svg>