<?xml version="1.0" encoding="UTF-8" standalone="no"?><!DOCTYPE svg PUBLIC "-//W3C//DTD SVG 1.1//EN" "http://www.w3.org/Graphics/SVG/1.1/DTD/svg11.dtd"><svg width="100%" height="100%" viewBox="0 0 48 48" version="1.1" xmlns="http://www.w3.org/2000/svg" xmlns:xlink="http://www.w3.org/1999/xlink" xml:space="preserve" xmlns:serif="http://www.serif.com/" style="fill-rule:evenodd;clip-rule:evenodd;stroke-linecap:round;stroke-linejoin:round;stroke-miterlimit:1.5;"><g><path d="M7.454,23.104c0.532,-0.015 0.966,-0.166 1.301,-0.453c0.335,-0.288 0.558,-0.683 0.668,-1.186c0.111,-0.502 0.169,-1.362 0.176,-2.578c0.007,-1.217 0.028,-2.018 0.062,-2.404c0.063,-0.612 0.178,-1.104 0.348,-1.475c0.169,-0.372 0.378,-0.669 0.627,-0.891c0.248,-0.222 0.566,-0.391 0.953,-0.508c0.262,-0.073 0.691,-0.109 1.285,-0.109l0.58,0l0,1.715l-0.321,0c-0.719,0 -1.195,0.137 -1.43,0.41c-0.235,0.273 -0.352,0.883 -0.352,1.83c0,1.909 -0.038,3.114 -0.114,3.617c-0.125,0.779 -0.337,1.38 -0.638,1.803c-0.3,0.422 -0.772,0.797 -1.414,1.125c0.76,0.335 1.311,0.847 1.653,1.535c0.342,0.688 0.513,1.816 0.513,3.382c0,1.42 0.013,2.265 0.041,2.535c0.055,0.495 0.195,0.841 0.42,1.038c0.224,0.196 0.665,0.295 1.321,0.295l0.321,0l0,1.715l-0.58,0c-0.677,0 -1.168,-0.058 -1.472,-0.175c-0.442,-0.167 -0.808,-0.439 -1.098,-0.814c-0.29,-0.375 -0.479,-0.85 -0.565,-1.426c-0.086,-0.575 -0.133,-1.518 -0.14,-2.83c-0.007,-1.311 -0.065,-2.218 -0.176,-2.72c-0.11,-0.503 -0.333,-0.9 -0.668,-1.191c-0.335,-0.291 -0.769,-0.444 -1.301,-0.459l0,-1.781Z" style="fill-rule:nonzero;"/><path d="M40.546,23.104l0,1.781c-0.532,0.015 -0.966,0.168 -1.301,0.459c-0.335,0.291 -0.558,0.686 -0.668,1.185c-0.111,0.499 -0.169,1.357 -0.176,2.573c-0.007,1.217 -0.028,2.018 -0.062,2.404c-0.063,0.619 -0.178,1.113 -0.348,1.481c-0.169,0.368 -0.378,0.663 -0.627,0.885c-0.248,0.222 -0.566,0.391 -0.953,0.508c-0.262,0.08 -0.691,0.12 -1.285,0.12l-0.58,0l0,-1.715l0.321,0c0.719,0 1.195,-0.137 1.43,-0.41c0.235,-0.273 0.352,-0.887 0.352,-1.841c0,-1.821 0.032,-2.976 0.094,-3.464c0.11,-0.808 0.331,-1.455 0.663,-1.939c0.332,-0.485 0.801,-0.861 1.409,-1.131c-0.794,-0.401 -1.354,-0.931 -1.678,-1.59c-0.325,-0.659 -0.488,-1.772 -0.488,-3.338c0,-1.42 -0.017,-2.269 -0.051,-2.545c-0.049,-0.488 -0.185,-0.829 -0.41,-1.022c-0.224,-0.193 -0.665,-0.29 -1.321,-0.29l-0.321,0l0,-1.715l0.58,0c0.677,0 1.168,0.058 1.472,0.175c0.442,0.16 0.808,0.43 1.098,0.808c0.29,0.379 0.479,0.856 0.565,1.432c0.086,0.575 0.133,1.518 0.14,2.83c0.007,1.311 0.065,2.216 0.176,2.715c0.11,0.499 0.333,0.894 0.668,1.185c0.335,0.292 0.769,0.444 1.301,0.459Z" style="fill-rule:nonzero;"/></g><path d="M22.396,27.547l8.497,-8.497l0.707,0.707l-9.192,9.193l-0.34,-0.34l-0.011,0.011l-5.657,-5.657l0.707,-0.707l5.289,5.29Z" style="fill:none;stroke-width:1px;"/><path d="M22.396,27.547l8.497,-8.497l0.707,0.707l-9.192,9.193l-0.34,-0.34l-0.011,0.011l-5.657,-5.657l0.707,-0.707l5.289,5.29Z"/></svg>